<svg width="128" height="595" viewBox="0 0 128 595" fill="none" xmlns="http://www.w3.org/2000/svg">
<path d="M82 561V588L113.5 561H82Z" fill="black"/>
<path d="M82 588V561H52.5L82 588Z" fill="black"/>
<path d="M38.5 4.5L49.5 14L52.5 25.5V41.5V56.5V70.5V83.5V98.5L49.5 118.5L40.5 133.5L27.5 146L18.5 157.5L10 173L5.5 190V206.5L7.5 225.5L11.5 238.5L26.5 252.5L46 265.5L62 267.5H76.5L89.5 263L98.5 252.5V241L94.5 229.5L84.5 219.5L70 216L52.5 218L40.5 225.5L34 235L34.5 248.5L38.5 263L36 276L30 286L18.5 300.5L10 313.5L7.5 330L11.5 353L18.5 371L30 391.5L42 408.5L55 431.5L65 454L71.5 476L76.5 496L79.5 517L82 561M82 561V588M82 561H52.5M82 561H113.5M82 588L52.5 561M82 588L113.5 561M52.5 561H113.5" stroke="black" stroke-width="10"/>
</svg>
